<?xml version="1.0" encoding="UTF-8" standalone="no"?>
<!DOCTYPE svg PUBLIC "-//W3C//DTD SVG 1.1//EN" "http://www.w3.org/Graphics/SVG/1.1/DTD/svg11.dtd">
<svg width="100%" height="100%" viewBox="0 0 1280 720" version="1.1" xmlns="http://www.w3.org/2000/svg" xmlns:xlink="http://www.w3.org/1999/xlink" xml:space="preserve" xmlns:serif="http://www.serif.com/" style="fill-rule:evenodd;clip-rule:evenodd;stroke-linejoin:round;stroke-miterlimit:1.41421;">
    <g transform="matrix(1,0,0,1,-1528.03,0)">
        <g id="NOLES.DEV-w-b" serif:id="NOLES.DEV w/b" transform="matrix(1,0,0,1,1528.03,0)">
            <rect x="0" y="0" width="1280" height="720" style="fill:none;"/>
            <g id="Asset">
                <g transform="matrix(1,0,0,1,-1528.03,0)">
                    <path d="M2700.04,74.986L2700.04,645.014L1635.85,645.014L1635.85,74.986L2700.04,74.986ZM2673.05,102.735L1663.01,102.735L1663.01,617.265L2673.05,617.265L2673.05,102.735Z" style="fill:white;"/>
                </g>
                <g transform="matrix(1.10996,0,0,1.10996,-95.4228,60.4001)">
                    <path d="M260.227,213.612L284.862,213.612L320.583,294.028L320.583,213.612L340.115,213.612L340.115,215.636C339.47,216.339 339.059,217.117 338.883,217.967C338.707,218.818 338.649,220.24 338.707,222.234L338.707,325.877L316.448,325.877L278.352,240.974L278.352,325.877L260.227,325.877L260.227,213.612Z" style="fill:white;fill-rule:nonzero;"/>
                    <path d="M390.089,329.132C381.232,329.132 373.621,326.772 367.257,322.05C360.893,317.328 356.025,310.495 352.652,301.55C349.28,292.605 347.593,281.915 347.593,269.481C347.593,257.222 349.28,246.693 352.652,237.895C356.025,229.097 360.893,222.366 367.257,217.703C373.621,213.04 381.232,210.709 390.089,210.709C398.946,210.709 406.556,213.04 412.92,217.703C419.284,222.366 424.153,229.097 427.525,237.895C430.898,246.693 432.584,257.222 432.584,269.481C432.584,281.915 430.898,292.605 427.525,301.55C424.153,310.495 419.284,317.328 412.92,322.05C406.556,326.772 398.946,329.132 390.089,329.132ZM390.089,312.944C394.547,312.944 398.403,311.111 401.658,307.445C404.914,303.779 407.407,298.588 409.137,291.872C410.867,285.156 411.732,277.34 411.732,268.425C411.732,260.155 410.867,252.896 409.137,246.649C407.407,240.403 404.914,235.564 401.658,232.132C398.403,228.701 394.547,226.985 390.089,226.985C385.69,226.985 381.848,228.701 378.563,232.132C375.278,235.564 372.771,240.403 371.041,246.649C369.31,252.896 368.445,260.155 368.445,268.425C368.445,277.34 369.31,285.156 371.041,291.872C372.771,298.588 375.264,303.779 378.519,307.445C381.774,311.111 385.631,312.944 390.089,312.944Z" style="fill:white;fill-rule:nonzero;"/>
                    <path d="M445.605,213.612L467.689,213.612L467.689,215.636C467.044,216.339 466.633,217.117 466.457,217.967C466.281,218.818 466.223,220.24 466.281,222.234L466.281,308.897L517.311,308.897L517.311,325.877L445.605,325.877L445.605,213.612Z" style="fill:white;fill-rule:nonzero;"/>
                    <path d="M534.819,325.877L534.819,213.612L607.932,213.612L607.932,230.944L554.439,230.944L554.439,258.659L598.782,258.659L598.782,276.343L554.439,276.343L554.439,308.545L607.581,308.545L607.581,325.877L534.819,325.877Z" style="fill:white;fill-rule:nonzero;"/>
                    <path d="M668.288,260.858C675.913,264.495 681.837,268 686.061,271.372C690.284,274.745 693.275,278.279 695.035,281.974C696.794,285.669 697.674,289.98 697.674,294.907C697.674,300.89 696.296,306.477 693.539,311.668C690.782,316.859 686.427,321.067 680.474,324.293C674.52,327.519 666.968,329.132 657.818,329.132C643.213,329.132 630.544,323.912 619.81,313.472L628.608,298.163L628.696,297.987L628.872,298.163C637.612,307.254 647.818,311.8 659.49,311.8C665.121,311.8 669.476,310.48 672.555,307.841C675.635,305.201 677.174,301.242 677.174,295.963C677.174,293.324 676.514,290.934 675.195,288.793C673.875,286.652 671.617,284.496 668.42,282.326C665.223,280.156 660.81,277.81 655.179,275.287C644.738,270.771 637.172,265.697 632.479,260.067C627.787,254.436 625.441,247.896 625.441,240.447C625.441,235.05 626.951,230.079 629.972,225.534C632.993,220.988 637.157,217.381 642.465,214.712C647.774,212.043 653.742,210.709 660.37,210.709C667.819,210.709 674.242,211.94 679.638,214.404C685.034,216.867 690.196,220.68 695.123,225.841L685.005,239.919L684.917,240.095C684.858,240.095 684.829,240.08 684.829,240.051C684.829,240.021 684.829,240.007 684.829,240.007C682.072,235.608 678.553,232.396 674.271,230.373C669.989,228.349 665.297,227.337 660.194,227.337C656.909,227.337 654.079,227.909 651.704,229.053C649.328,230.197 647.539,231.707 646.337,233.584C645.134,235.461 644.533,237.514 644.533,239.743C644.533,242.382 645.222,244.714 646.601,246.737C647.979,248.761 650.34,250.843 653.683,252.984C657.026,255.125 661.895,257.75 668.288,260.858ZM682.453,239.831C682.453,239.713 682.512,239.655 682.629,239.655C682.747,239.655 682.996,239.801 683.377,240.095C683.758,240.388 684.096,240.622 684.389,240.798L684.125,241.238L682.453,240.095L682.453,239.831ZM684.917,240.095C685.327,240.74 685.533,241.15 685.533,241.326C685.533,241.385 685.503,241.414 685.445,241.414C685.269,241.414 684.917,241.209 684.389,240.798L684.917,240.095ZM631.248,298.075C631.248,298.192 631.189,298.251 631.072,298.251C630.896,298.251 630.588,298.133 630.148,297.899C629.708,297.664 629.341,297.488 629.048,297.371L629.4,296.755L631.16,297.811L631.248,298.075ZM628.696,297.987C628.227,297.518 627.992,297.195 627.992,297.019C627.992,297.019 627.992,297.004 627.992,296.975C627.992,296.946 628.022,296.931 628.08,296.931L629.048,297.371L628.696,297.987Z" style="fill:white;fill-rule:nonzero;"/>
                    <path d="M748.176,328.253C745.947,328.253 743.879,327.71 741.973,326.625C740.067,325.54 738.571,324.044 737.486,322.138C736.401,320.232 735.858,318.164 735.858,315.935C735.858,313.765 736.401,311.756 737.486,309.908C738.571,308.061 740.067,306.594 741.973,305.509C743.879,304.424 745.947,303.882 748.176,303.882C750.346,303.882 752.355,304.424 754.203,305.509C756.05,306.594 757.517,308.061 758.602,309.908C759.687,311.756 760.229,313.765 760.229,315.935C760.229,318.164 759.687,320.232 758.602,322.138C757.517,324.044 756.05,325.54 754.203,326.625C752.355,327.71 750.346,328.253 748.176,328.253Z" style="fill:white;fill-rule:nonzero;"/>
                    <path d="M802.901,213.612L831.935,213.612C841.496,213.612 849.106,214.888 854.766,217.439C860.426,219.991 865.251,223.935 869.239,229.273C876.923,239.713 880.765,253.468 880.765,270.536C880.765,288.25 876.644,301.902 868.403,311.492C860.162,321.082 847.273,325.877 829.735,325.877L802.901,325.877L802.901,213.612ZM829.383,310.04C839.883,310.04 847.698,306.726 852.831,300.098C857.963,293.47 860.529,283.792 860.529,271.064C860.529,243.966 850.763,230.417 831.231,230.417L822.521,230.417L822.521,310.04L829.383,310.04Z" style="fill:white;fill-rule:nonzero;"/>
                    <path d="M895.194,325.877L895.194,213.612L968.307,213.612L968.307,230.944L914.814,230.944L914.814,258.659L959.157,258.659L959.157,276.343L914.814,276.343L914.814,308.545L967.955,308.545L967.955,325.877L895.194,325.877Z" style="fill:white;fill-rule:nonzero;"/>
                    <path d="M1013.35,325.877L976.929,213.612L998.221,213.612L1021.8,293.236L1044.15,213.612L1064.91,213.612L1028.84,325.877L1013.35,325.877Z" style="fill:white;fill-rule:nonzero;"/>
                </g>
            </g>
        </g>
    </g>
</svg>
